<svg xmlns="http://www.w3.org/2000/svg" xmlns:xlink="http://www.w3.org/1999/xlink" version="1.1" x="0px" y="0px" viewBox="0 0 241 137" style="enable-background:new 0 0 241 137;" xml:space="preserve">
<defs><linearGradient id="greenShine" x1="-1" y1="0" x2="0" y2="0" gradientUnits="objectBoundingBox" spreadMethod="pad"><stop offset="0%" style="stop-color:#9CC6AF" /><stop offset="40%" style="stop-color:#9CC6AF" /><stop offset="50%" style="stop-color:#D5EDE0" /><stop offset="60%" style="stop-color:#9CC6AF" /><stop offset="100%" style="stop-color:#9CC6AF" /><animate attributeName="x1" values="-1;1" dur="2s" repeatCount="indefinite" /><animate attributeName="x2" values="0;2" dur="2s" repeatCount="indefinite" /></linearGradient></defs><style type="text/css">
	.st0{fill:url(#SVGID_1_);}
	.st1{fill:#F4E4B4;}
	.st2{fill:#6D665B;}
	.st3{fill:#FFFFFF;}
	.st4{fill:#E6B69A;}
	.st5{fill:#9CC6AF;}
	.st6{fill:#ECCFA8;}


/* === Requested new variant === */

/* 1) 黃色點點：依序閃耀（2.0s），DOM 順序每顆 +0.2s */
#黃色點點 &gt; * {
  transform-box: fill-box;
  transform-origin: center;
  animation: glow 2.0s ease-in-out infinite;
  opacity: 0.22;
  will-change: opacity, transform;
}

/* 2) 鬧鐘：左右慢擺（-4deg ↔ 4deg, 3s） */
#鬧鐘 {
  transform-box: fill-box;
  transform-origin: bottom center;
  animation: sway 3s ease-in-out infinite alternate;
  will-change: transform;
}

/* 3) 火焰：柔和閃耀＋輕微放大（3s） */
#火焰 {
  transform-box: fill-box;
  transform-origin: center;
  animation: flame 3s ease-in-out infinite;
  will-change: transform, opacity;
}

/* 4) 綠底（.st5）左→右閃耀：以 animated gradient 當 fill */
.st5 {
  /* Inline style overrides will be applied to set fill:url(#greenShine) */
}

/* Keyframes */
@keyframes glow {
  0%, 100% { opacity: 0.22; transform: scale(1.00); }
  55%      { opacity: 0.95; transform: scale(1.06); }
}
@keyframes sway {
  0%   { transform: rotate(-4deg); }
  100% { transform: rotate( 4deg); }
}
@keyframes flame {
  0%, 100% { transform: scale(0.98); opacity: 0.72; }
  50%      { transform: scale(1.05); opacity: 1.00; }
}

</style>
<g id="綠底">
	
		<linearGradient id="SVGID_1_" gradientUnits="userSpaceOnUse" x1="15.6" y1="55.15" x2="172.4" y2="55.15" gradientTransform="matrix(1 0 0 -1 0 138)">
		<stop offset="6.989250e-02" style="stop-color:#9CC6AF" />
		<stop offset="1" style="stop-color:#D9E9E2" />
	</linearGradient>
	<polygon class="st0" points="23.6,50.7 15.6,115 164.4,115 172.4,50.7  " id="綠底形狀" />
<use xlink:href="#綠底形狀" style="fill:url(#greenShine); opacity:0.65;" /></g>
<g id="圖層_1">
	<path class="st1" d="M138.4,32.7c-0.2,0-0.3,0-0.5,0H51.4l-4,39.5H134c0.2,0,0.3,0,0.5,0L138.4,32.7z" />
	<g>
		<g>
			<g>
				<path class="st2" d="M63.7,45.4c-0.5,1.5-1.2,3.2-1.8,4.6c1.3,1.5,1.6,2.8,1.6,3.9c0,0.9-0.2,1.7-0.7,2.1      c-0.3,0.2-0.6,0.3-1,0.3c-0.3,0.1-0.8,0.1-1.2,0c0-0.3-0.1-0.8-0.3-1.2c0.4,0,0.8,0.1,1,0c0.2,0,0.4-0.1,0.6-0.2      c0.3-0.2,0.4-0.7,0.4-1.2c0-1-0.3-2.2-1.6-3.7c0.5-1.3,1.1-2.8,1.4-4h-2.6v14.5h-1.2V44.9h4.3l0.2-0.1L63.7,45.4z M73.5,54.3      c-0.9,0.8-2.1,1.5-3.1,2.1c0.9,1.3,2,2.3,3.5,2.9c-0.3,0.3-0.7,0.8-0.9,1.1c-2.8-1.3-4.5-4.1-5.4-7.7h-1.7v5.9L69,58      c0,0.4,0,0.9,0.1,1.2c-3.7,1-4.2,1.2-4.6,1.4c-0.1-0.3-0.4-0.8-0.6-1.1c0.3-0.1,0.7-0.5,0.7-1.3V45h7.9v7.9h-3.7      c0.3,1,0.6,1.9,1.1,2.7c0.9-0.6,2.1-1.5,2.8-2.1L73.5,54.3z M65.8,46.1v2.2h5.3v-2.2H65.8z M65.8,51.7h5.3v-2.2h-5.3V51.7z" />
				<path class="st2" d="M82,57.1h-3.9v1.4h-1.2V45.4H82V57.1z M78.1,46.6v4h2.6v-4H78.1z M80.7,55.9v-4.1h-2.6v4.1H80.7z       M88.1,47.5v2.3H92V51h-1.6v2h2.1v1.2h-2.1V59c0,0.8-0.2,1.2-0.7,1.4c-0.6,0.2-1.5,0.2-2.9,0.2c-0.1-0.4-0.3-0.9-0.4-1.3      c1.1,0,2.1,0,2.4,0s0.4-0.1,0.4-0.4v-4.8h-6.8V53h6.8v-2h-6v-1.2h3.7v-2.3h-4.5v-1.2h4.5v-2.2h1.3v2.2h4.5v1.2H88.1z M84.6,54.8      c0.8,0.9,1.9,2.2,2.3,3.1l-1.2,0.7c-0.4-0.9-1.4-2.2-2.3-3.2L84.6,54.8z" />
				<path class="st2" d="M99,50.6c0.5,0.7,1.8,2.7,2.1,3.1l-0.7,1c-0.3-0.6-0.9-1.7-1.4-2.6v8.4h-1.2v-8.2c-0.6,1.9-1.3,3.7-2.1,4.9      c-0.2-0.3-0.5-0.9-0.7-1.2c1.1-1.5,2.1-4.3,2.6-6.8h-2.3V48h2.4v-3.9h1.2V48h1.8v1.2H99V50.6z M111.4,47.1V50h-1.3v-1.8h-7.9V50      H101v-2.9h1.9c-0.2-0.6-0.6-1.6-1.1-2.3l1.1-0.4c0.5,0.7,1,1.6,1.2,2.2L103,47h2.5v-2.9h1.3V47h2.2l-0.9-0.4      c0.4-0.6,0.9-1.7,1.2-2.4l1.2,0.4c-0.5,0.8-1,1.7-1.4,2.3h2.3V47.1z M101.5,54h9.4v6.6h-1.3v-0.7h-6.9v0.7h-1.2V54z M109.9,49.4      V53h-7.2v-3.6H109.9z M102.7,55v1.4h2.8V55H102.7z M105.5,58.9v-1.4h-2.8v1.4H105.5z M108.6,50.4h-4.7V52h4.7V50.4z M109.6,55      h-2.9v1.4h2.9V55z M109.6,58.9v-1.4h-2.9v1.4H109.6z" />
				<path class="st2" d="M122.8,56.3H114v-1.2h1.7v-7.3h-1.5v-1.2h1.5v-2.2h1.2v2.2h3.3v-2.2h1.2v2.2h1.3v1.2h-1.3v7.3h1.3      L122.8,56.3L122.8,56.3z M117.8,57c-0.6,1.4-1.7,2.8-2.7,3.6c-0.3-0.2-0.8-0.6-1.1-0.8c1-0.8,1.9-2,2.5-3.2L117.8,57z M117,47.7      v1.6h3.3v-1.6H117z M117,52.2h3.3v-1.8H117V52.2z M117,55.1h3.3v-1.8H117V55.1z M120.1,56.6c0.7,0.8,1.5,1.9,1.9,2.7l-1.1,0.6      c-0.3-0.7-1.1-1.9-1.9-2.7L120.1,56.6z M129.9,58.9c0,0.8-0.2,1.2-0.7,1.4s-1.4,0.3-2.7,0.3c-0.1-0.4-0.2-1-0.4-1.3      c1,0,1.9,0,2.1,0c0.3,0,0.4-0.1,0.4-0.4v-4.3h-3.8c-0.2,2.1-0.6,4.4-1.7,6.2c-0.2-0.3-0.8-0.7-1.1-0.8c1.5-2.4,1.6-5.8,1.6-8.4      v-6.5h6.2v13.8H129.9z M128.6,53.3v-3H125v1.2c0,0.6,0,1.2,0,1.8H128.6z M125,46.3v2.9h3.7v-2.9H125z" />
			</g>
		</g>
		<g>
			<path class="st3" d="M40.7,96.3l-2.3,0.6v7.6h-2.7v-6.9l-3.2,0.8l-0.7-2.9c1.1-0.2,2.4-0.5,3.9-0.8v-5.3h-1.4     c-0.2,1.2-0.5,2.3-0.9,3.2c-0.5-0.2-1.5-0.6-2-0.8c0.8-1.9,1.2-5,1.4-8l2.2,0.3c-0.1,0.8-0.2,1.7-0.3,2.5h1V82h2.7v4.7h2.1v2.7     h-2.1v4.7l2-0.5L40.7,96.3z M53.8,96.2h-2.3v5c0,1.4-0.3,2.2-1.2,2.6c-0.9,0.4-2.3,0.5-4,0.5c-0.1-0.8-0.5-2-0.9-2.8     c1.1,0,2.4,0,2.8,0s0.5-0.1,0.5-0.4v-4.9H41v-2.6h7.6v-1.7h2.8v1.7h2.3v2.6H53.8z M45.6,86.7h-4.5v-2.6h4.5V82h2.8v2.1h4.8v2.6     h-4.8v2h4v2.6H42v-2.6h3.6V86.7z M44.2,96.3c1,1.1,2.3,2.6,2.9,3.6l-2.3,1.5c-0.5-1-1.7-2.6-2.7-3.8L44.2,96.3z" />
			<path class="st3" d="M56.9,102.3c0.9-1.1,1.8-2.8,2.2-4.3l2.5,1c-0.5,1.5-1.3,3.4-2.2,4.7L56.9,102.3z M66.3,85.4h-8.7v-2.2h8.7     V82h3v1.2h9v2.2h-9v1.1h7.3v7.1h-2.4c1.6,0.9,3.3,2.1,4.2,3l-2,1.5c-0.3-0.3-0.7-0.7-1.1-1.1c-2.3,0-4.6,0.1-6.9,0.1     c1.1,0.7,2.3,1.6,2.9,2.3l-1.9,1.6c-0.7-0.9-2.3-2.1-3.6-3l1.2-1c-3.5,0-6.7,0.1-9.2,0.1l-0.1-2.4c2.3,0,5.3,0,8.6,0v-1.3H59     v-7.1h7.3V85.4z M61.7,89.2h4.6v-1.1h-4.6V89.2z M66.3,91.9v-1.1h-4.6v1.1H66.3z M70.8,101.7c1.1,0,1.3-0.3,1.4-2.1     c0.6,0.4,1.7,0.7,2.5,0.9c-0.3,2.8-1.1,3.5-3.6,3.5h-4.7c-3.3,0-4.2-0.7-4.2-3v-2.7H65v2.7c0,0.6,0.2,0.7,1.6,0.7H70.8z      M69.2,88.1v1.1h4.5v-1.1H69.2z M69.2,91.9h4.5v-1.1h-4.5V91.9z M72.2,94.9c-0.4-0.2-0.7-0.4-1.1-0.6l1.1-0.7h-3v1.3L72.2,94.9z      M76.3,98.2c1.1,1.4,2.2,3.3,2.5,4.7l-2.6,0.8c-0.3-1.2-1.3-3.2-2.3-4.7L76.3,98.2z" />
			<path class="st3" d="M88.4,82.7c-0.5,1.7-1.1,3.4-1.8,5v16.6H84V92.9c-0.4,0.6-0.7,1.1-1.1,1.5c-0.2-0.7-0.9-2.4-1.3-3.1     c1.8-2.3,3.3-5.8,4.2-9.2L88.4,82.7z M93.4,99.3c1.2-0.2,2.4-0.4,3.6-0.6l0.2,2.3c-3.3,0.7-6.9,1.3-9.6,1.8l-0.4-2.5     c1-0.1,2.3-0.3,3.6-0.6v-2.9h-3v-2.4h3v-2.2h2.6v2.2h3.3v2.4h-3.3L93.4,99.3L93.4,99.3z M92.7,85.9c-0.5,1.1-1.1,2.3-1.7,3.4     l2.9-0.4c-0.3-0.5-0.6-1-0.9-1.5l2-0.8c1,1.5,2.1,3.4,2.5,4.7v-7.1h2.4v14.3h-2.4v-6.9l-2.1,1c-0.1-0.5-0.4-1-0.6-1.6     c-5,0.9-5.8,1.1-6.4,1.4c-0.1-0.5-0.6-1.7-0.8-2.4c0.3-0.1,0.7-0.5,1-1c0.2-0.4,0.8-1.6,1.3-3h-1.8v-2.4h8.6V86L92.7,85.9     L92.7,85.9z M103.6,82.7v18.4c0,1.4-0.3,2.1-1.2,2.5c-0.8,0.4-2.1,0.5-4,0.5c-0.1-0.7-0.6-1.8-0.9-2.5c1.3,0,2.6,0,3,0     s0.6-0.1,0.6-0.5V82.7H103.6z" />
			<path class="st3" d="M128,88.9c-0.4,3.5-1,6.5-2.1,9c0.9,1.8,2.2,3.3,3.8,4.2c-0.6,0.4-1.2,1.3-1.6,1.9c-1.4-1-2.5-2.2-3.5-3.8     c-1.1,1.7-2.5,3.1-4.3,4.2c-0.2-0.4-0.6-1.2-1.1-1.7l-1.5,1.3c-0.8-0.5-1.9-1.1-3.1-1.7c-1.6,0.7-3.7,1.3-6.7,1.8     c-0.2-0.6-0.7-1.4-1-1.8c2.1-0.3,3.8-0.6,5.1-1.1c-1.1-0.4-2.2-0.8-3.2-1.1c0.3-0.4,0.7-0.9,1.1-1.4l-2.2,0.1l-0.2-1.9     c1.1,0,2.3-0.1,3.7-0.2c0.3-0.5,0.6-1,0.8-1.5h-3.5v-4.3h4.3v-0.7h-3.6v-2.5h-1.8v-2h1.8v-2.4h3.6V82h2.2v1.5h3.9v2.4h1.6v2h-1.6     v2.5H115v0.7h4.4v1.8c1.6-2.6,2.4-6.6,2.8-10.8l2.4,0.3c-0.2,1.3-0.4,2.7-0.6,4h5.7v2.5H128z M110.7,93.7h2v-0.9h-2V93.7z      M111.4,85.3V86h1.3v-0.8h-1.3V85.3z M112.7,88.6v-0.9h-1.3v0.9H112.7z M112.1,99.4c0.8,0.3,1.6,0.6,2.4,0.9     c0.9-0.5,1.4-1.1,1.7-1.7l-3.6,0.2L112.1,99.4z M118.6,98.4c-0.2,1-0.7,1.9-1.8,2.8c0.9,0.4,1.6,0.8,2.3,1.1     c1.9-1.1,3.3-2.6,4.3-4.6c-0.6-1.4-1-3-1.4-4.8c-0.3,0.6-0.6,1.2-0.9,1.8c-0.4-0.4-1.2-1.3-1.8-1.8v2.5h-4.8     c-0.2,0.5-0.5,0.9-0.8,1.4l2.8-0.1v-0.8h2.2v0.7h0.8v1.8H118.6z M114.9,85.3V86h1.4v-0.8h-1.4V85.3z M116.3,88.6v-0.9h-1.4v0.9     H116.3z M114.9,92.8v0.9h1.9v-0.9H114.9z M123.3,88.9c0.3,2,0.7,4,1.2,5.8c0.5-1.7,0.8-3.6,1-5.8H123.3z" />
		</g>
	</g>
</g>
<g id="火焰_1_">
	<g id="火焰">
		<path class="st4" d="M162.4,64.2c0,0-1.9-32.2,23-36c16.5-2.5,18.8-3.3,22-6c5.4-4.6,5-11,5-11s9.3,13.3,7.5,23.8    c-1.6,9.7-4.8,11-4.8,11s7.3,0.8,11.3-7.3c0.5-1,4.5,27.5-8.8,41.5c-8.7,9.2-16.3,11-16.3,11L162.4,64.2z" />
	</g>
</g>
<g id="鬧鐘_1_">
	<g id="鬧鐘">
		<g>
			<g>
				<g>
					<path class="st3" d="M211.8,79.5c0.1,19-15.1,34.4-34.1,34.6c-19,0.1-34.4-15.1-34.6-34.1c-0.1-19,15.1-34.4,34.1-34.6       C196.2,45.3,211.7,60.5,211.8,79.5z" />
					<path class="st1" d="M177.8,117.8c-21,0.2-38.2-16.8-38.3-37.7c-0.2-21,16.8-38.2,37.7-38.3c21-0.2,38.2,16.8,38.3,37.7       C215.7,100.4,198.7,117.6,177.8,117.8z M180.9,123.8c0.4,1.8-1.1,3.7-3.4,4.2l0,0c-2.3,0.5-4.5-0.5-4.9-2.3l0.8-12.1       c-0.4-1.8,1-1.4,3.2-1.9l0.8,1.3c2.3-0.5,3.8-3.1,4.3-1.3L180.9,123.8z M148.2,96.8c1.7-0.8,3.8,0.3,4.8,2.5l0,0       c1,2.1,0.4,4.5-1.3,5.2l-9.1,8.1c-1.7,0.8-3.8-0.3-4.8-2.5l0,0c-1-2.1-0.4-4.5,1.3-5.2L148.2,96.8z M177.3,49.1       c-16.9,0.1-30.5,14-30.4,30.8c0.1,16.9,14,30.5,30.8,30.4c16.9-0.1,30.5-14,30.4-30.8C208,62.6,194.1,49,177.3,49.1z" />
				</g>
				<g>
					<path class="st5" d="M179.5,80.8c0,0.9-0.7,1.6-1.5,1.6l0,0c-0.9,0-1.6-0.7-1.6-1.5l-0.1-9.5c0-0.9,0.7-1.6,1.5-1.6l0,0       c0.9,0,1.6,0.7,1.6,1.5L179.5,80.8z" style="" />
					<path class="st5" d="M184.3,84.8c0.4,0.4,0.3,1.3-0.3,1.9l0,0c-0.6,0.6-1.5,0.7-1.9,0.3l-5-4.9c-0.5-0.4-0.3-1.3,0.3-1.9l0,0       c0.6-0.6,1.5-0.7,1.9-0.3L184.3,84.8z" style="" />
				</g>
				<g>
					<path class="st6" d="M179.1,58c0,1-0.8,1.8-1.8,1.8s-1.8-0.8-1.8-1.8s0.8-1.8,1.8-1.8S179.1,57,179.1,58z" />
					<path class="st6" d="M179.4,100.8c0,1-0.8,1.8-1.8,1.8s-1.8-0.8-1.8-1.8s0.8-1.8,1.8-1.8C178.6,99,179.4,99.8,179.4,100.8z" />
				</g>
				<g>
					<path class="st5" d="M179.1,58c0,1-0.8,1.8-1.8,1.8s-1.8-0.8-1.8-1.8s0.8-1.8,1.8-1.8S179.1,57,179.1,58z" style="" />
					<path class="st5" d="M179.4,100.8c0,1-0.8,1.8-1.8,1.8s-1.8-0.8-1.8-1.8s0.8-1.8,1.8-1.8C178.6,99,179.4,99.8,179.4,100.8z" style="" />
				</g>
				<g>
					<path class="st5" d="M156.1,77.8c1,0,1.8,0.8,1.8,1.8s-0.8,1.8-1.8,1.8s-1.8-0.8-1.8-1.8C154.3,78.6,155.1,77.8,156.1,77.8z" style="" />
					<path class="st5" d="M198.9,77.4c1,0,1.8,0.8,1.8,1.8s-0.8,1.8-1.8,1.8s-1.8-0.8-1.8-1.8C197.1,78.3,197.9,77.5,198.9,77.4z" style="" />
				</g>
			</g>
			<g>
				<path class="st1" d="M163.4,28.1c-5.5,1.7-8.6,7.6-6.9,13.2l20-6.3C174.8,29.4,168.9,26.3,163.4,28.1z" />
				<path class="st1" d="M219.2,46c-3.4-4.7-10-5.7-14.7-2.3l12.4,17C221.6,57.2,222.6,50.7,219.2,46z" />
			</g>
		</g>
	</g>
</g>
<g id="黃色點點">
	<path class="st1" d="M61.7,20.2c0,1.3-1.1,2.4-2.4,2.4s-2.4-1.1-2.4-2.4s1.1-2.4,2.4-2.4S61.7,18.9,61.7,20.2z" style="animation-delay:0.00s;" />
	<path class="st1" d="M73.3,20.2c0,1.3-1.1,2.4-2.4,2.4s-2.4-1.1-2.4-2.4s1.1-2.4,2.4-2.4S73.3,18.9,73.3,20.2z" style="animation-delay:0.20s;" />
	<path class="st1" d="M84.9,20.2c0,1.3-1.1,2.4-2.4,2.4s-2.4-1.1-2.4-2.4s1.1-2.4,2.4-2.4S84.9,18.9,84.9,20.2z" style="animation-delay:0.40s;" />
	<path class="st1" d="M96.5,20.2c0,1.3-1.1,2.4-2.4,2.4s-2.4-1.1-2.4-2.4s1.1-2.4,2.4-2.4S96.5,18.9,96.5,20.2z" style="animation-delay:0.60s;" />
	<path class="st1" d="M108.1,20.2c0,1.3-1.1,2.4-2.4,2.4s-2.4-1.1-2.4-2.4s1.1-2.4,2.4-2.4S108.1,18.9,108.1,20.2z" style="animation-delay:0.80s;" />
	<path class="st1" d="M119.7,20.2c0,1.3-1.1,2.4-2.4,2.4s-2.4-1.1-2.4-2.4s1.1-2.4,2.4-2.4S119.7,18.9,119.7,20.2z" style="animation-delay:1.00s;" />
	<path class="st1" d="M131.2,20.2c0,1.3-1.1,2.4-2.4,2.4s-2.4-1.1-2.4-2.4s1.1-2.4,2.4-2.4S131.2,18.9,131.2,20.2z" style="animation-delay:1.20s;" />
</g>
</svg>